<svg xmlns="http://www.w3.org/2000/svg" xmlns:xlink="http://www.w3.org/1999/xlink" width="390"
    height="350" viewBox="0 0 390 350" fill="none">
    <path fill="#019587"
        d="M202.247 336.992L383.128 12.3341C386.209 6.80423 382.211 0 375.881 0L14.1192 0C7.789 0 3.79092 6.80423 6.87187 12.3341L187.753 336.992C190.916 342.67 199.084 342.67 202.247 336.992Z">
    </path>
    <path fill="#FAFDFD"
        d="M319.86 65.91C321.133 65.1978 322.418 66.8261 321.43 67.9L195.43 204.92C194.904 205.492 193.996 205.468 193.5 204.87L115.33 110.58C114.498 109.577 115.522 108.115 116.75 108.55L193.89 135.87C194.238 135.993 194.628 135.96 194.95 135.78L319.86 65.91Z">
    </path>
    <path fill="rgba(250, 253, 253, 1)"
        d="M115.714 110.262L193.887 204.55L193.502 204.869L193.887 204.55C194.19 204.915 194.745 204.929 195.067 204.58L195.435 204.918L195.067 204.58L321.063 67.5649L321.063 67.5649C321.666 66.9094 320.882 65.9164 320.104 66.3511L319.86 65.9147L320.104 66.3511L195.191 136.213L195.191 136.213L195.191 136.213Q194.855 136.401 194.472 136.433Q194.088 136.466 193.725 136.337L193.892 135.866L193.725 136.337L116.579 109.024L116.745 108.553L116.579 109.024C115.829 108.759 115.207 109.65 115.714 110.262L115.714 110.262ZM114.944 110.9L115.329 110.581L114.944 110.9C113.789 109.507 115.205 107.477 116.912 108.081L116.912 108.081L194.059 135.395L194.059 135.395Q194.393 135.513 194.703 135.34L194.947 135.776L194.703 135.34L194.947 135.776L194.703 135.34L319.616 65.4784L319.616 65.4784C321.386 64.4887 323.172 66.7494 321.799 68.2418L321.431 67.9034L321.799 68.2418L195.803 205.257L195.803 205.257C195.071 206.052 193.807 206.02 193.117 205.188L193.117 205.188L114.944 110.9Z">
    </path>
</svg>