<svg xmlns="http://www.w3.org/2000/svg" xmlns:xlink="http://www.w3.org/1999/xlink" width="500"
    height="500" viewBox="0 0 500 500" fill="none">
    <circle cx="250" cy="250" r="250" fill="#FFFFFF">
    </circle>
    <path fill="#019587"
        d="M257.247 461.992L438.128 137.334C441.209 131.804 437.211 125 430.881 125L69.1192 125C62.789 125 58.7909 131.804 61.8719 137.334L242.753 461.992C245.916 467.67 254.084 467.67 257.247 461.992Z">
    </path>
    <path fill="#FAFDFD"
        d="M374.86 190.91C376.133 190.198 377.418 191.826 376.43 192.9L250.43 329.92C249.904 330.492 248.996 330.468 248.5 329.87L170.33 235.58C169.498 234.577 170.522 233.115 171.75 233.55L248.89 260.87C249.238 260.993 249.628 260.96 249.95 260.78L374.86 190.91Z">
    </path>
    <path fill="rgba(250, 253, 253, 1)"
        d="M170.714 235.262L248.887 329.55L248.502 329.869L248.887 329.55C249.19 329.915 249.745 329.929 250.067 329.58L250.435 329.918L250.067 329.58L376.063 192.565L376.063 192.565C376.666 191.909 375.882 190.916 375.104 191.351L374.86 190.915L375.104 191.351L250.191 261.213L250.191 261.213L250.191 261.213Q249.855 261.401 249.472 261.433Q249.088 261.466 248.725 261.337L248.892 260.866L248.725 261.337L171.579 234.024L171.745 233.553L171.579 234.024C170.829 233.759 170.207 234.65 170.714 235.262L170.714 235.262ZM169.944 235.9L170.329 235.581L169.944 235.9C168.789 234.507 170.205 232.477 171.912 233.081L171.912 233.081L249.059 260.395L249.059 260.395Q249.393 260.513 249.703 260.34L249.947 260.776L249.703 260.34L249.947 260.776L249.703 260.34L374.616 190.478L374.616 190.478C376.386 189.489 378.172 191.749 376.799 193.242L376.431 192.903L376.799 193.242L250.803 330.257L250.803 330.257C250.071 331.052 248.807 331.02 248.117 330.188L248.117 330.188L169.944 235.9Z">
    </path>
</svg>